<svg version="1.1" id="Layer_1" xmlns="http://www.w3.org/2000/svg" xmlns:xlink="http://www.w3.org/1999/xlink" x="0px" y="0px"
	 width="100%" viewBox="0 0 512 512" enable-background="new 0 0 512 512" xml:space="preserve">
<path fill="#F4B500" opacity="1.000000" stroke="none" 
	d="
M47.000000,1.000000 
	C63.020893,1.000000 79.041786,1.000000 95.373520,1.328237 
	C94.787590,4.270637 93.168678,6.870324 93.115929,9.501405 
	C92.852325,22.651056 92.829933,35.811783 93.049683,48.963150 
	C93.272942,62.324291 105.334312,73.979179 118.564064,73.983223 
	C148.370987,73.992325 178.177902,73.985809 207.989868,74.455872 
	C208.033707,84.094780 208.072510,93.263466 208.075195,102.804199 
	C207.723907,104.119987 207.395889,105.059669 207.095459,106.008095 
	C202.380447,120.893242 210.584381,136.202560 225.353302,140.084763 
	C240.518631,144.071182 255.514313,134.864670 257.922180,119.110382 
	C258.751038,113.687469 256.686554,107.822342 255.957123,101.677414 
	C255.987381,92.123878 256.004333,83.052147 256.488647,73.980301 
	C297.751862,73.656609 338.556732,73.737083 379.339539,72.826889 
	C397.767914,72.415604 410.088348,61.554276 417.679474,45.240574 
	C419.487030,41.356094 420.462677,37.084541 421.899689,33.454391 
	C422.008911,51.230549 422.039429,68.543335 421.927338,86.315910 
	C421.806244,127.799706 421.827728,168.823715 421.397797,209.939575 
	C418.283203,210.067108 415.619995,210.133331 412.956818,210.133987 
	C360.162476,210.146835 307.368164,210.141571 254.573822,210.168274 
	C244.625122,210.173309 239.234070,215.388229 239.099258,224.978485 
	C239.033737,229.637848 238.984131,234.297455 238.474808,238.976105 
	C231.968597,239.708069 225.804779,239.932861 219.891357,241.267258 
	C213.646545,242.676407 207.504959,244.919373 203.833313,250.894562 
	C203.890640,250.927307 203.951050,250.809875 203.666687,250.895172 
	C203.225922,251.333710 203.069534,251.686981 202.668884,252.215515 
	C201.925735,253.254807 201.426819,254.118820 200.505646,254.995132 
	C189.123291,255.008682 178.163193,255.009933 167.028061,254.686066 
	C165.566010,251.213333 164.279007,248.065720 162.984436,244.543320 
	C160.008392,236.375763 157.039917,228.583023 154.069763,220.420761 
	C152.650223,219.005859 151.244888,217.176208 149.810638,217.153244 
	C148.573532,217.133438 146.699203,218.932953 146.147690,220.337051 
	C142.967606,228.433289 140.096832,236.651031 136.992081,245.061035 
	C136.619171,245.548355 136.375443,245.802261 135.754898,245.983673 
	C130.258194,243.947937 125.166565,241.906769 120.011810,240.039825 
	C112.384537,237.277405 104.712471,234.638687 96.880692,231.689926 
	C95.808640,230.946228 94.915367,230.459915 94.011444,229.507584 
	C93.995850,179.557190 93.934555,130.072647 94.076088,80.588684 
	C94.089722,75.820648 93.106422,74.072464 87.826599,73.797432 
	C76.108231,73.186996 65.587219,69.280838 56.924274,60.632805 
	C50.561329,54.280804 46.350002,46.898529 42.984928,38.679340 
	C42.984928,40.500751 42.984932,42.322166 42.984928,44.143578 
	C42.984882,76.633339 42.999714,109.123116 42.950607,141.612808 
	C42.947407,143.730072 42.453499,145.846588 42.114769,147.502182 
	C42.027866,102.770317 41.911659,58.499092 42.187237,14.230303 
	C42.210224,10.537520 44.882359,6.863998 46.306129,3.174751 
	C46.579609,2.466115 46.770828,1.725735 47.000000,1.000000 
z"/>
<path fill="#F9CE00" opacity="1.000000" stroke="none" 
	d="
M416.531342,1.000000 
	C424.838806,10.367533 421.235046,21.562057 421.890564,32.528221 
	C420.462677,37.084541 419.487030,41.356094 417.679474,45.240574 
	C410.088348,61.554276 397.767914,72.415604 379.339539,72.826889 
	C338.556732,73.737083 297.751862,73.656609 256.019501,73.968208 
	C250.050140,73.965874 245.017242,73.975517 239.519073,73.985291 
	C234.043167,73.983543 229.032547,73.981651 223.553802,73.966423 
	C218.052078,73.963936 213.018448,73.974792 207.984818,73.985649 
	C178.177902,73.985809 148.370987,73.992325 118.564064,73.983223 
	C105.334312,73.979179 93.272942,62.324291 93.049683,48.963150 
	C92.829933,35.811783 92.852325,22.651056 93.115929,9.501405 
	C93.168678,6.870324 94.787590,4.270637 95.842178,1.328237 
	C202.687561,1.000000 309.375122,1.000000 416.531342,1.000000 
z"/>
<path fill="#08B9E2" opacity="1.000000" stroke="none" 
	d="
M294.107574,510.833923 
	C291.854492,511.330139 289.601410,511.826355 287.674164,512.661255 
	C272.312439,513.000000 256.624878,513.000000 240.696884,512.656189 
	C241.777420,512.196594 243.100540,512.101013 244.419052,511.961761 
	C253.214096,511.032715 261.920685,509.737549 269.595490,504.878479 
	C273.836578,502.193420 276.998016,498.703674 277.277985,493.344086 
	C277.484070,489.398682 275.844940,486.409729 272.091644,485.194702 
	C268.249420,483.950897 265.110168,485.166382 262.500397,488.535065 
	C260.909698,490.588379 258.632233,492.879852 256.283905,493.422333 
	C250.681091,494.716614 244.853378,495.037384 239.116623,495.342224 
	C239.056732,493.025208 238.996719,491.117279 239.011230,488.734375 
	C239.038910,483.203156 238.992081,478.146942 239.010284,472.663177 
	C239.084595,469.953644 239.093872,467.671722 239.543381,465.298004 
	C241.808578,465.123718 243.640945,465.118713 245.457260,464.945465 
	C253.942932,464.136017 262.258026,462.659363 269.630310,458.007355 
	C273.881256,455.324890 277.019562,451.822449 277.286743,446.466187 
	C277.483734,442.516998 275.789612,439.553711 272.071808,438.313416 
	C268.203857,437.023041 265.109711,438.383148 262.499695,441.692108 
	C260.886200,443.737732 258.627502,446.055511 256.281647,446.586578 
	C250.678406,447.855164 244.852005,448.137878 239.114746,448.415405 
	C239.054108,446.151398 238.994446,444.290680 239.009796,441.941223 
	C239.039444,436.375854 238.994064,431.299194 239.012207,425.791931 
	C239.078003,423.078339 239.080292,420.795319 239.532333,418.432098 
	C242.138550,418.233215 244.396072,418.485352 246.433533,417.930084 
	C254.206146,415.811859 262.097565,413.915161 269.565704,410.973694 
	C274.134338,409.174286 277.042694,404.978394 277.287964,399.601654 
	C277.479767,395.397430 275.558044,392.459930 271.589478,391.292633 
	C267.826050,390.185608 264.986603,391.810425 262.506653,394.847290 
	C260.853180,396.872040 258.619202,399.205048 256.273285,399.725983 
	C250.667603,400.970795 244.841995,401.225189 239.106628,401.444519 
	C239.054886,399.256134 239.001694,397.502808 239.022842,395.302368 
	C239.045242,389.735077 238.993286,384.614838 238.994171,379.098114 
	C239.046127,376.302795 239.045227,373.903961 239.505615,371.496765 
	C249.826920,371.101685 259.559875,370.062775 268.353363,365.066162 
	C273.146667,362.342438 276.981598,358.783539 277.280060,352.742950 
	C277.488037,348.533997 275.555084,345.642334 271.582886,344.429993 
	C267.758881,343.262909 265.004578,345.019073 262.513733,347.981995 
	C260.830719,349.983978 258.621918,352.318176 256.279236,352.836884 
	C250.672897,354.078217 244.848495,354.334778 239.110535,354.553894 
	C239.054108,352.375763 238.999283,350.632599 239.019669,348.434021 
	C239.043594,342.897491 238.992310,337.816376 238.991638,332.313629 
	C239.063171,329.614838 239.084122,327.337708 239.515030,324.957153 
	C249.387726,324.090240 258.875000,323.348083 267.459290,318.737061 
	C272.270264,316.152802 276.413086,312.860199 277.176575,306.910461 
	C277.725189,302.635193 276.336029,299.308624 272.063660,297.771576 
	C267.776245,296.229156 264.822571,298.104553 262.268921,301.558014 
	C260.991150,303.286011 259.145142,305.348083 257.250427,305.725952 
	C251.282532,306.916107 245.169937,307.380615 239.113190,307.684296 
	C239.055878,305.485901 238.998749,303.729218 239.016418,301.511993 
	C239.041473,295.987274 238.991714,290.923065 238.998764,285.433868 
	C239.071182,282.720978 239.086792,280.433075 239.527374,278.055176 
	C249.605133,277.318237 259.227417,276.420746 267.912354,271.635376 
	C272.703247,268.995636 276.724640,265.569885 277.237610,259.553528 
	C277.587799,255.446381 276.092194,252.308823 272.059662,250.926758 
	C267.833160,249.478195 264.754181,251.152023 262.260620,254.727203 
	C261.119507,256.363281 259.444214,258.362427 257.709381,258.715973 
	C251.583405,259.964294 245.326920,260.572174 239.118561,261.031067 
	C239.057770,258.769409 238.998352,256.899567 239.013107,254.565735 
	C239.033951,249.053467 238.980637,244.005203 238.927322,238.956940 
	C238.984131,234.297455 239.033737,229.637848 239.099258,224.978485 
	C239.234070,215.388229 244.625122,210.173309 254.573822,210.168274 
	C307.368164,210.141571 360.162476,210.146835 412.956818,210.133987 
	C415.619995,210.133331 418.283203,210.067108 421.873596,209.987671 
	C433.180817,209.959610 443.561432,209.921906 453.940491,210.030807 
	C456.350647,210.056091 458.755585,210.581024 460.684387,210.917633 
	C439.237427,210.969208 418.268982,210.984741 397.300568,210.987976 
	C364.849243,210.992950 332.397888,210.994675 299.946564,210.981354 
	C296.874512,210.980087 293.949463,210.577957 293.977600,215.315277 
	C294.145599,243.603607 294.137299,271.892975 294.183685,300.639038 
	C294.155334,371.008667 294.131439,440.921265 294.107574,510.833923 
z"/>
<path fill="#E6F2FA" opacity="1.000000" stroke="none" 
	d="
M239.116501,495.751312 
	C244.853378,495.037384 250.681091,494.716614 256.283905,493.422333 
	C258.632233,492.879852 260.909698,490.588379 262.500397,488.535065 
	C265.110168,485.166382 268.249420,483.950897 272.091644,485.194702 
	C275.844940,486.409729 277.484070,489.398682 277.277985,493.344086 
	C276.998016,498.703674 273.836578,502.193420 269.595490,504.878479 
	C261.920685,509.737549 253.214096,511.032715 244.419052,511.961761 
	C243.100540,512.101013 241.777420,512.196594 240.228226,512.656189 
	C235.643097,513.000000 231.286194,513.000000 226.464630,513.000000 
	C225.632828,512.327576 225.347427,511.147400 224.883957,511.072784 
	C223.115280,510.787842 221.289230,510.859161 219.084808,510.131226 
	C214.323273,507.185394 209.587357,505.407318 205.692551,502.501770 
	C200.587311,498.693176 199.772110,493.803162 202.228241,487.786621 
	C202.642197,487.073822 202.851837,486.556427 203.031723,486.024231 
	C203.001968,486.009430 203.056564,486.050323 203.259399,485.902374 
	C203.636734,485.472351 203.811203,485.190247 203.975830,484.941772 
	C203.965988,484.975403 203.901596,484.947845 204.350464,484.976959 
	C209.923004,484.522095 214.575043,484.920868 216.966080,490.591187 
	C217.286148,491.350189 218.822906,491.596161 219.971283,492.412170 
	C226.469727,493.746826 232.793121,494.749084 239.116501,495.751312 
z"/>
<path fill="#E58303" opacity="1.000000" stroke="none" 
	d="
M95.876709,453.043701 
	C74.424461,435.172546 57.267471,413.784424 43.745312,389.414276 
	C43.348717,388.699524 42.746792,388.098724 42.426571,386.770996 
	C42.685863,384.108154 42.822781,382.119080 42.823235,380.130035 
	C42.834972,328.397736 42.829800,276.665466 42.842926,224.933182 
	C42.843433,222.944382 42.996529,220.955612 43.525513,218.969971 
	C46.759037,219.177460 49.634865,219.008026 52.317112,219.648865 
	C66.245949,222.976685 80.125427,226.511124 94.022095,229.973587 
	C94.915367,230.459915 95.808640,230.946228 96.858047,232.164093 
	C97.005165,304.035553 97.006287,375.175476 96.940529,446.315369 
	C96.938454,448.558472 96.246857,450.800934 95.876709,453.043701 
z"/>
<path fill="#1D3CA8" opacity="1.000000" stroke="none" 
	d="
M461.162903,210.876068 
	C458.755585,210.581024 456.350647,210.056091 453.940491,210.030807 
	C443.561432,209.921906 433.180817,209.959610 422.325012,209.895844 
	C421.827728,168.823715 421.806244,127.799706 421.927307,86.315910 
	C441.019470,103.344154 456.965790,123.234833 469.865509,145.566803 
	C481.311035,165.381317 490.048401,186.340897 495.169983,208.628906 
	C497.814026,220.135147 499.889099,231.889526 500.817841,243.642670 
	C501.967346,258.189972 502.641571,272.912415 501.751556,287.450836 
	C500.441772,308.844818 496.153290,329.893494 488.378448,349.956146 
	C483.568756,362.367401 477.597961,374.328705 471.741119,386.473206 
	C471.249054,384.476532 471.098358,382.498993 471.089874,380.520844 
	C471.016022,363.317719 470.967712,346.114532 470.998047,328.458435 
	C471.107635,293.439728 471.169739,258.873840 471.124359,224.308136 
	C471.114258,216.608200 468.124908,212.823761 461.162903,210.876068 
z"/>
<path fill="#F29C02" opacity="1.000000" stroke="none" 
	d="
M202.023926,487.982086 
	C199.772110,493.803162 200.587311,498.693176 205.692551,502.501770 
	C209.587357,505.407318 214.323273,507.185394 218.832031,509.803192 
	C207.356903,507.613586 195.734741,505.085785 184.035522,501.890686 
	C189.535446,492.552612 187.358978,485.437836 177.798798,480.803650 
	C177.876968,480.367126 177.951309,480.202026 178.380722,480.005951 
	C184.721848,476.965729 187.477905,472.672516 186.925232,467.218018 
	C186.328979,461.333496 182.539719,457.740082 174.979233,455.415344 
	C174.928772,437.624481 174.864166,420.294312 174.864868,402.503448 
	C174.895645,361.274353 174.861130,320.505920 174.888733,279.351501 
	C174.600250,277.199585 174.443588,275.367157 173.864380,273.679779 
	C171.719421,267.431000 169.435074,261.230103 167.203110,255.011200 
	C178.163193,255.009933 189.123291,255.008682 200.531189,255.432449 
	C200.596252,263.984161 203.806458,269.789154 212.636765,272.637054 
	C221.163834,275.387177 230.257584,276.380249 239.102402,278.145203 
	C239.086792,280.433075 239.071182,282.720978 238.544373,285.460052 
	C231.932419,286.624115 225.731705,286.877136 219.758148,288.175354 
	C213.402313,289.556641 207.331680,292.043701 203.216797,298.141724 
	C199.427048,305.038849 200.083817,310.609924 205.824402,315.239838 
	C208.978439,317.783630 212.776520,320.080780 216.646561,321.066437 
	C223.995148,322.938049 231.604187,323.786896 239.105072,325.060577 
	C239.084122,327.337708 239.063171,329.614838 238.531998,332.343628 
	C231.614929,333.570038 225.088821,333.827545 218.835663,335.268982 
	C212.899094,336.637421 207.101532,339.012482 203.677887,344.757019 
	C203.744614,344.814056 203.849136,344.672974 203.553467,344.775452 
	C203.084259,345.251343 202.910736,345.624756 202.465118,346.255005 
	C201.772964,348.912384 200.791702,351.372986 201.040894,353.701935 
	C201.715240,360.004456 206.320526,363.380066 211.498383,365.986267 
	C220.156082,370.344055 229.548950,371.225555 239.044342,371.505157 
	C239.045227,373.903961 239.046127,376.302795 238.533905,379.153625 
	C235.032272,379.751953 232.006485,379.649536 229.062027,380.090271 
	C219.503906,381.520935 209.894073,382.969696 203.569275,391.644104 
	C203.615997,391.735962 203.795883,391.635376 203.491974,391.740692 
	C202.994583,392.224457 202.801132,392.602905 202.362778,393.260010 
	C199.731522,399.750153 200.498260,404.662048 205.527054,408.688019 
	C208.808411,411.315094 212.687485,413.791870 216.685776,414.797485 
	C224.000122,416.637115 231.601105,417.337097 239.082581,418.512329 
	C239.080292,420.795319 239.078003,423.078339 238.587555,425.841156 
	C234.779770,426.555298 231.427704,426.573486 228.146774,427.065735 
	C219.391083,428.379364 210.698730,429.972900 204.372833,437.248840 
	C204.287216,437.284668 204.304321,437.469513 204.094360,437.596008 
	C203.605911,437.935150 203.453430,438.216125 203.470093,438.619659 
	C203.513199,438.673889 203.610153,438.574890 203.348938,438.708679 
	C202.951828,439.202301 202.815903,439.562103 202.782715,439.916565 
	C202.885468,439.911163 202.866394,439.706299 202.614166,439.820618 
	C202.266769,440.278534 202.171600,440.622192 201.836060,441.298462 
	C199.500351,447.619415 201.455017,452.566223 206.212448,456.126556 
	C209.469131,458.563843 213.228973,460.874420 217.109589,461.814240 
	C224.307266,463.557404 231.757874,464.256134 239.103165,465.389771 
	C239.093872,467.671722 239.084595,469.953644 238.571716,472.698975 
	C234.134674,473.472809 230.138916,473.447174 226.280579,474.162689 
	C217.891418,475.718475 209.375000,477.245667 203.901596,484.947845 
	C203.901596,484.947845 203.965988,484.975403 203.714569,485.025818 
	C203.327621,485.400909 203.192093,485.725616 203.056564,486.050323 
	C203.056564,486.050323 203.001968,486.009430 202.801804,486.203400 
	C202.409073,486.925598 202.216492,487.453857 202.023926,487.982086 
z"/>
<path fill="#F29B00" opacity="1.000000" stroke="none" 
	d="
M94.011444,229.507584 
	C80.125427,226.511124 66.245949,222.976685 52.317112,219.648865 
	C49.634865,219.008026 46.759037,219.177460 43.393421,218.520203 
	C42.786186,197.014343 42.772163,175.961319 42.704353,154.908478 
	C42.698635,153.132919 42.332451,151.358521 42.133732,149.583572 
	C42.121479,149.312851 42.109222,149.042130 42.142406,148.367432 
	C42.453499,145.846588 42.947407,143.730072 42.950607,141.612808 
	C42.999714,109.123116 42.984882,76.633339 42.984928,44.143578 
	C42.984932,42.322166 42.984928,40.500751 42.984928,38.679340 
	C46.350002,46.898529 50.561329,54.280804 56.924274,60.632805 
	C65.587219,69.280838 76.108231,73.186996 87.826599,73.797432 
	C93.106422,74.072464 94.089722,75.820648 94.076088,80.588684 
	C93.934555,130.072647 93.995850,179.557190 94.011444,229.507584 
z"/>
<path fill="#F29B00" opacity="1.000000" stroke="none" 
	d="
M96.020905,453.355347 
	C96.246857,450.800934 96.938454,448.558472 96.940529,446.315369 
	C97.006287,375.175476 97.005165,304.035553 97.036819,232.421478 
	C104.712471,234.638687 112.384537,237.277405 120.011810,240.039825 
	C125.166565,241.906769 130.258194,243.947937 135.709808,246.359207 
	C133.157547,254.735138 130.478561,262.745544 127.331337,270.567566 
	C124.240662,278.249054 124.534111,286.054108 125.527786,294.447632 
	C125.536842,331.263947 125.499306,367.612122 125.353027,404.420837 
	C125.231621,421.860748 125.218956,438.840057 124.825668,455.903564 
	C118.225616,457.043610 114.541962,460.669769 113.406235,466.878479 
	C107.659180,462.474640 101.912140,458.070801 96.020905,453.355347 
z"/>
<path fill="#FCE173" opacity="1.000000" stroke="none" 
	d="
M255.943817,102.159225 
	C256.686554,107.822342 258.751038,113.687469 257.922180,119.110382 
	C255.514313,134.864670 240.518631,144.071182 225.353302,140.084763 
	C210.584381,136.202560 202.380447,120.893242 207.095459,106.008095 
	C207.395889,105.059669 207.723907,104.119987 208.341980,102.566322 
	C212.295059,95.891479 217.533249,91.709351 224.426590,88.981918 
	C229.896591,88.956345 234.950775,88.945503 240.303162,89.116913 
	C247.249481,91.755806 252.104904,96.351166 255.943817,102.159225 
M227.550369,110.985634 
	C223.682922,106.285271 218.569595,105.654854 215.350525,109.598228 
	C212.838669,112.675262 212.582626,116.069977 215.112640,119.208687 
	C217.463730,122.125427 220.744583,122.947571 224.096146,121.259239 
	C228.018372,119.283424 229.455780,115.977829 227.550369,110.985634 
M249.854385,118.178032 
	C251.821609,114.343903 251.210861,110.528244 247.585220,108.687546 
	C245.264313,107.509247 241.395157,107.583511 239.012405,108.735336 
	C235.215317,110.570839 234.862961,115.822807 237.481812,119.098785 
	C240.607544,123.008858 244.915848,122.912666 249.854385,118.178032 
z"/>
<path fill="#E6F2FA" opacity="1.000000" stroke="none" 
	d="
M239.527374,278.055206 
	C230.257584,276.380249 221.163834,275.387177 212.636765,272.637054 
	C203.806458,269.789154 200.596252,263.984161 200.953445,255.420166 
	C201.426819,254.118820 201.925735,253.254807 202.892334,252.056030 
	C203.557022,251.417480 203.754044,251.113678 203.951050,250.809875 
	C203.951050,250.809875 203.890640,250.927307 204.237793,250.920532 
	C209.760391,249.222870 213.563065,250.836227 216.385925,255.473129 
	C217.075577,256.605957 218.655273,257.196991 220.015808,258.365936 
	C226.510544,259.604156 232.815231,260.513519 239.119919,261.422913 
	C245.326920,260.572174 251.583405,259.964294 257.709381,258.715973 
	C259.444214,258.362427 261.119507,256.363281 262.260620,254.727203 
	C264.754181,251.152023 267.833160,249.478195 272.059662,250.926758 
	C276.092194,252.308823 277.587799,255.446381 277.237610,259.553528 
	C276.724640,265.569885 272.703247,268.995636 267.912354,271.635376 
	C259.227417,276.420746 249.605133,277.318237 239.527374,278.055206 
z"/>
<path fill="#FAEBAB" opacity="1.000000" stroke="none" 
	d="
M167.028061,254.686066 
	C169.435074,261.230103 171.719421,267.431000 173.864380,273.679779 
	C174.443588,275.367157 174.600250,277.199585 174.647614,279.607330 
	C170.922699,286.691650 166.147629,290.046387 160.820633,288.413879 
	C157.263992,287.323883 154.237900,284.502716 150.778137,282.307495 
	C150.092422,282.123627 149.602936,282.088531 148.933884,281.745117 
	C147.171722,276.514832 144.567352,271.655396 144.261566,266.655365 
	C143.867035,260.203644 145.311310,253.639450 146.212219,247.043152 
	C146.627167,246.912231 146.793579,246.861862 147.408005,246.899948 
	C152.901352,246.298325 157.946671,245.608215 162.992004,244.918121 
	C164.279007,248.065720 165.566010,251.213333 167.028061,254.686066 
z"/>
<path fill="#E8D974" opacity="1.000000" stroke="none" 
	d="
M145.963715,247.123703 
	C145.311310,253.639450 143.867035,260.203644 144.261566,266.655365 
	C144.567352,271.655396 147.171722,276.514832 148.860489,281.953308 
	C148.966675,282.469849 148.873901,282.899872 148.580658,283.064636 
	C145.343750,286.944244 141.477036,289.745453 136.815247,288.532379 
	C132.868866,287.505463 129.380539,284.718262 125.481201,282.596710 
	C125.481201,286.093384 125.481201,290.036438 125.481201,293.979462 
	C124.534111,286.054108 124.240662,278.249054 127.331337,270.567566 
	C130.478561,262.745544 133.157547,254.735138 136.086639,246.431702 
	C136.375443,245.802261 136.619171,245.548355 137.359863,245.148590 
	C140.559128,245.709717 143.261414,246.416718 145.963715,247.123703 
z"/>
<path fill="#B8DAF2" opacity="1.000000" stroke="none" 
	d="
M219.825760,258.037109 
	C218.655273,257.196991 217.075577,256.605957 216.385925,255.473129 
	C213.563065,250.836227 209.760391,249.222870 204.180450,250.887787 
	C207.504959,244.919373 213.646545,242.676407 219.891357,241.267258 
	C225.804779,239.932861 231.968597,239.708069 238.474808,238.976105 
	C238.980637,244.005203 239.033951,249.053467 238.567902,254.550858 
	C231.974274,256.012360 225.900024,257.024750 219.825760,258.037109 
z"/>
<path fill="#F29C01" opacity="1.000000" stroke="none" 
	d="
M224.010757,88.996651 
	C217.533249,91.709351 212.295059,95.891479 208.378082,102.194290 
	C208.072510,93.263466 208.033707,84.094780 207.989868,74.455872 
	C213.018448,73.974792 218.052078,73.963936 223.547668,74.434738 
	C224.010025,79.609818 224.010391,84.303238 224.010757,88.996651 
z"/>
<path fill="#F29C01" opacity="1.000000" stroke="none" 
	d="
M255.957123,101.677414 
	C252.104904,96.351166 247.249481,91.755806 240.302109,88.656189 
	C239.996674,83.337196 239.990509,78.661179 239.984344,73.985153 
	C245.017242,73.975517 250.050140,73.965874 255.552170,73.968323 
	C256.004333,83.052147 255.987381,92.123878 255.957123,101.677414 
z"/>
<path fill="#213EA7" opacity="1.000000" stroke="none" 
	d="
M162.984436,244.543320 
	C157.946671,245.608215 152.901352,246.298325 147.417542,246.484131 
	C149.343185,237.583298 151.707306,229.186783 154.071442,220.790268 
	C157.039917,228.583023 160.008392,236.375763 162.984436,244.543320 
z"/>
<path fill="#182D94" opacity="1.000000" stroke="none" 
	d="
M154.069763,220.420761 
	C151.707306,229.186783 149.343185,237.583298 146.969528,246.395660 
	C146.793579,246.861862 146.627167,246.912231 146.212234,247.043152 
	C143.261414,246.416718 140.559128,245.709717 137.489044,244.915161 
	C140.096832,236.651031 142.967606,228.433289 146.147690,220.337051 
	C146.699203,218.932953 148.573532,217.133438 149.810638,217.153244 
	C151.244888,217.176208 152.650223,219.005859 154.069763,220.420761 
z"/>
<path fill="#B8DAF2" opacity="1.000000" stroke="none" 
	d="
M203.666687,250.895172 
	C203.754044,251.113678 203.557022,251.417480 203.136566,251.880768 
	C203.069534,251.686981 203.225922,251.333710 203.666687,250.895172 
z"/>
<path fill="#55F3FF" opacity="1.000000" stroke="none" 
	d="
M470.911804,328.911346 
	C470.967712,346.114532 471.016022,363.317719 471.089874,380.520844 
	C471.098358,382.498993 471.249054,384.476532 471.581177,386.801880 
	C464.768494,397.718475 458.053711,408.540070 450.558380,418.790985 
	C441.762634,430.820374 431.948822,442.032654 420.160126,451.336182 
	C419.261078,452.045654 418.534821,452.974091 417.365723,453.470459 
	C416.996704,451.333832 416.963043,449.527130 416.989777,447.721313 
	C417.036224,444.585693 417.398865,441.336456 413.739319,439.288757 
	C413.765747,435.856079 413.770935,432.871826 413.769653,429.887543 
	C413.766479,422.592651 413.917023,415.293396 413.716003,408.003937 
	C413.461090,398.761414 408.490204,393.944641 399.354797,393.918915 
	C388.581329,393.888550 377.807434,394.000763 366.565857,393.982269 
	C357.598969,393.893127 349.098938,393.782867 340.601196,393.878021 
	C332.168793,393.972473 327.068695,399.197266 327.015320,407.708130 
	C326.948456,418.373840 326.994110,429.040222 326.640747,439.897217 
	C325.527679,441.612457 324.136993,443.124603 324.106964,444.663300 
	C323.942200,453.099670 324.111053,461.542572 324.095612,470.448364 
	C324.039825,481.889038 324.053711,492.864563 324.067596,503.840118 
	C315.253021,505.893585 306.438812,507.948517 297.623383,509.998291 
	C296.704041,510.212067 295.777557,510.395172 294.480988,510.713196 
	C294.131439,440.921265 294.155334,371.008667 294.602264,300.579407 
	C296.520081,300.095642 298.092926,299.833954 299.497803,300.206116 
	C316.667511,304.754486 334.008179,308.783661 350.909851,314.182831 
	C368.314240,319.742645 385.103424,327.226624 402.503998,332.800385 
	C415.641205,337.008575 429.451569,339.620911 443.294128,336.902832 
	C452.661896,335.063416 461.716919,331.631165 470.911804,328.911346 
z"/>
<path fill="#EE4B8B" opacity="1.000000" stroke="none" 
	d="
M324.457336,503.908569 
	C324.053711,492.864563 324.039825,481.889038 324.450500,470.520844 
	C334.655243,473.946899 344.435364,477.765594 355.263916,481.993683 
	C355.263916,467.424988 355.263916,454.073303 355.263916,439.816284 
	C346.517120,439.816284 337.131256,439.816284 328.109863,439.588348 
	C338.634308,439.271637 348.794250,439.182892 359.321320,439.279633 
	C377.697327,439.555786 395.706238,439.646484 413.715149,439.737152 
	C417.398865,441.336456 417.036224,444.585693 416.989777,447.721313 
	C416.963043,449.527130 416.996704,451.333832 417.055237,453.599670 
	C402.726288,466.741089 387.089386,477.563629 369.059082,485.994263 
	C366.036316,485.447754 363.750397,485.014008 361.546143,484.320587 
	C355.457275,482.405273 354.454498,483.146881 355.066345,489.495758 
	C355.175323,490.626556 355.657898,491.721344 355.967957,492.832764 
	C345.594330,496.547516 335.220703,500.262268 324.457336,503.908569 
z"/>
<path fill="#F75D95" opacity="1.000000" stroke="none" 
	d="
M356.325806,492.806519 
	C355.657898,491.721344 355.175323,490.626556 355.066345,489.495758 
	C354.454498,483.146881 355.457275,482.405273 361.546143,484.320587 
	C363.750397,485.014008 366.036316,485.447754 368.693787,486.013367 
	C364.962921,488.277924 360.823273,490.529114 356.325806,492.806519 
z"/>
<path fill="#203CA6" opacity="1.000000" stroke="none" 
	d="
M41.885063,149.791565 
	C42.332451,151.358521 42.698635,153.132919 42.704353,154.908478 
	C42.772163,175.961319 42.786186,197.014343 42.946426,218.517059 
	C42.996529,220.955612 42.843433,222.944382 42.842926,224.933182 
	C42.829800,276.665466 42.834972,328.397736 42.823235,380.130035 
	C42.822781,382.119080 42.685863,384.108154 42.382896,386.413391 
	C30.242903,365.835327 22.337057,343.461487 16.940474,320.070038 
	C11.483955,296.418823 10.713353,272.375458 12.264921,248.456589 
	C14.527038,213.583969 24.660145,180.676010 41.885063,149.791565 
z"/>
<path fill="#B9D9EF" opacity="1.000000" stroke="none" 
	d="
M177.794983,481.075104 
	C187.358978,485.437836 189.535446,492.552612 183.803284,501.557556 
	C171.965057,497.273285 160.282013,492.654816 148.285339,487.531250 
	C147.953308,484.752014 147.934921,482.477844 148.255341,480.151367 
	C149.049637,480.085693 149.505112,480.072327 150.306976,480.288635 
	C159.700562,480.703857 168.747772,480.889496 177.794983,481.075104 
z"/>
<path fill="#B9DBF3" opacity="1.000000" stroke="none" 
	d="
M113.686378,467.132660 
	C114.541962,460.669769 118.225616,457.043610 125.277618,455.955963 
	C132.761261,456.035706 139.412308,456.147186 145.951141,456.564392 
	C137.435913,464.851227 137.047470,468.599152 143.574417,478.372162 
	C143.838577,478.767670 143.883835,479.309418 143.753265,480.044067 
	C141.322952,480.899109 139.170425,481.493134 137.017914,482.087158 
	C136.375595,481.956665 135.733276,481.826172 134.864899,481.181732 
	C134.450058,480.418793 134.217041,480.222260 133.939758,480.078186 
	C127.282013,475.847748 120.624268,471.617310 113.686378,467.132660 
z"/>
<path fill="#9FCBE4" opacity="1.000000" stroke="none" 
	d="
M137.155701,482.410339 
	C139.170425,481.493134 141.322952,480.899109 144.141754,480.090057 
	C145.844208,479.984589 146.880356,480.094116 147.916519,480.203674 
	C147.934921,482.477844 147.953308,484.752014 147.941620,487.397461 
	C144.372162,486.090363 140.832809,484.411957 137.155701,482.410339 
z"/>
<path fill="#B9D9EF" opacity="1.000000" stroke="none" 
	d="
M134.007568,480.311676 
	C134.217041,480.222260 134.450058,480.418793 134.751007,480.865356 
	C134.519485,481.013763 134.256882,480.841156 134.007568,480.311676 
z"/>
<path fill="#F4B501" opacity="1.000000" stroke="none" 
	d="
M239.519073,73.985298 
	C239.990509,78.661179 239.996674,83.337196 240.003891,88.473938 
	C234.950775,88.945503 229.896591,88.956345 224.426590,88.981918 
	C224.010391,84.303238 224.010025,79.609818 224.015778,74.448090 
	C229.032547,73.981651 234.043167,73.983543 239.519073,73.985298 
z"/>
<path fill="#06DAF7" opacity="1.000000" stroke="none" 
	d="
M470.998047,328.458435 
	C461.716919,331.631165 452.661896,335.063416 443.294128,336.902832 
	C429.451569,339.620911 415.641205,337.008575 402.503998,332.800385 
	C385.103424,327.226624 368.314240,319.742645 350.909851,314.182831 
	C334.008179,308.783661 316.667511,304.754486 299.497803,300.206116 
	C298.092926,299.833954 296.520081,300.095642 294.606720,300.122406 
	C294.137299,271.892975 294.145599,243.603607 293.977600,215.315277 
	C293.949463,210.577957 296.874512,210.980087 299.946564,210.981354 
	C332.397888,210.994675 364.849243,210.992950 397.300568,210.987976 
	C418.268982,210.984741 439.237427,210.969208 460.684387,210.917633 
	C468.124908,212.823761 471.114258,216.608200 471.124359,224.308136 
	C471.169739,258.873840 471.107635,293.439728 470.998047,328.458435 
z"/>
<path fill="#E5F2FA" opacity="1.000000" stroke="none" 
	d="
M239.515015,324.957153 
	C231.604187,323.786896 223.995148,322.938049 216.646561,321.066437 
	C212.776520,320.080780 208.978439,317.783630 205.824402,315.239838 
	C200.083817,310.609924 199.427048,305.038849 203.639236,298.124969 
	C209.387238,296.174011 213.266464,297.554443 216.198532,302.130737 
	C216.998749,303.379700 218.664261,304.074310 220.143799,305.328064 
	C226.607742,306.463898 232.860550,307.294952 239.113342,308.125977 
	C245.169937,307.380615 251.282532,306.916107 257.250427,305.725952 
	C259.145142,305.348083 260.991150,303.286011 262.268921,301.558014 
	C264.822571,298.104553 267.776245,296.229156 272.063660,297.771576 
	C276.336029,299.308624 277.725189,302.635193 277.176575,306.910461 
	C276.413086,312.860199 272.270264,316.152802 267.459290,318.737061 
	C258.875000,323.348083 249.387726,324.090240 239.515015,324.957153 
z"/>
<path fill="#E6F2FA" opacity="1.000000" stroke="none" 
	d="
M239.505615,371.496765 
	C229.548950,371.225555 220.156082,370.344055 211.498383,365.986267 
	C206.320526,363.380066 201.715240,360.004456 201.040894,353.701935 
	C200.791702,351.372986 201.772964,348.912384 202.714050,346.092529 
	C203.439774,345.339813 203.644440,345.006378 203.849121,344.672974 
	C203.849136,344.672974 203.744614,344.814056 204.098785,344.781342 
	C209.747818,343.232361 214.037964,343.940643 216.556381,349.624359 
	C217.038071,350.711426 218.807693,351.227783 220.242416,352.273743 
	C226.705200,353.356293 232.908661,354.172577 239.112137,354.988861 
	C244.848495,354.334778 250.672897,354.078217 256.279236,352.836884 
	C258.621918,352.318176 260.830719,349.983978 262.513733,347.981995 
	C265.004578,345.019073 267.758881,343.262909 271.582886,344.429993 
	C275.555084,345.642334 277.488037,348.533997 277.280060,352.742950 
	C276.981598,358.783539 273.146667,362.342438 268.353363,365.066162 
	C259.559875,370.062775 249.826920,371.101685 239.505615,371.496765 
z"/>
<path fill="#E6F2FA" opacity="1.000000" stroke="none" 
	d="
M239.532318,418.432129 
	C231.601105,417.337097 224.000122,416.637115 216.685776,414.797485 
	C212.687485,413.791870 208.808411,411.315094 205.527054,408.688019 
	C200.498260,404.662048 199.731522,399.750153 202.628235,393.100159 
	C203.357666,392.319550 203.576782,391.977448 203.795883,391.635376 
	C203.795883,391.635376 203.615997,391.735962 203.994110,391.704834 
	C209.826706,390.335297 214.416702,390.828888 216.829926,396.942963 
	C217.201279,397.883759 218.886459,398.305969 220.282013,399.164978 
	C226.768372,400.201111 232.936783,401.040314 239.105179,401.879517 
	C244.841995,401.225189 250.667603,400.970795 256.273285,399.725983 
	C258.619202,399.205048 260.853180,396.872040 262.506653,394.847290 
	C264.986603,391.810425 267.826050,390.185608 271.589478,391.292633 
	C275.558044,392.459930 277.479767,395.397430 277.287964,399.601654 
	C277.042694,404.978394 274.134338,409.174286 269.565704,410.973694 
	C262.097565,413.915161 254.206146,415.811859 246.433533,417.930084 
	C244.396072,418.485352 242.138550,418.233215 239.532318,418.432129 
z"/>
<path fill="#E6F2FA" opacity="1.000000" stroke="none" 
	d="
M239.543381,465.298004 
	C231.757874,464.256134 224.307266,463.557404 217.109589,461.814240 
	C213.228973,460.874420 209.469131,458.563843 206.212448,456.126556 
	C201.455017,452.566223 199.500351,447.619415 202.018005,441.124329 
	C202.582321,440.313812 202.724350,440.010040 202.866394,439.706299 
	C202.866394,439.706299 202.885468,439.911163 203.020798,439.755188 
	C203.307465,439.257782 203.458801,438.916351 203.610153,438.574890 
	C203.610153,438.574890 203.513199,438.673889 203.745132,438.563477 
	C204.086151,438.125214 204.195236,437.797363 204.304321,437.469513 
	C204.304321,437.469513 204.287216,437.284668 204.808594,437.444031 
	C210.405289,437.757477 215.014938,438.677460 217.325470,444.086365 
	C217.583878,444.691345 219.010742,444.797211 220.073303,445.452881 
	C226.539139,446.787018 232.827423,447.802826 239.115707,448.818665 
	C244.852005,448.137878 250.678406,447.855164 256.281647,446.586578 
	C258.627502,446.055511 260.886200,443.737732 262.499695,441.692108 
	C265.109711,438.383148 268.203857,437.023041 272.071808,438.313416 
	C275.789612,439.553711 277.483734,442.516998 277.286743,446.466187 
	C277.019562,451.822449 273.881256,455.324890 269.630310,458.007355 
	C262.258026,462.659363 253.942932,464.136017 245.457260,464.945465 
	C243.640945,465.118713 241.808578,465.123718 239.543381,465.298004 
z"/>
<path fill="#B8DAF2" opacity="1.000000" stroke="none" 
	d="
M219.983109,352.007446 
	C218.807693,351.227783 217.038071,350.711426 216.556381,349.624359 
	C214.037964,343.940643 209.747818,343.232361 204.032043,344.724304 
	C207.101532,339.012482 212.899094,336.637421 218.835663,335.268982 
	C225.088821,333.827545 231.614929,333.570038 238.481415,332.765289 
	C238.992310,337.816376 239.043594,342.897491 238.567383,348.405762 
	C232.020981,349.891113 226.002045,350.949280 219.983109,352.007446 
z"/>
<path fill="#B8DAF2" opacity="1.000000" stroke="none" 
	d="
M219.964020,398.968048 
	C218.886459,398.305969 217.201279,397.883759 216.829926,396.942963 
	C214.416702,390.828888 209.826706,390.335297 203.947388,391.612976 
	C209.894073,382.969696 219.503906,381.520935 229.062027,380.090271 
	C232.006485,379.649536 235.032272,379.751953 238.481079,379.550110 
	C238.993286,384.614838 239.045242,389.735077 238.567688,395.270325 
	C232.013443,396.779602 225.988739,397.873810 219.964020,398.968048 
z"/>
<path fill="#B8DAF3" opacity="1.000000" stroke="none" 
	d="
M219.932663,305.023315 
	C218.664261,304.074310 216.998749,303.379700 216.198532,302.130737 
	C213.266464,297.554443 209.387238,296.174011 203.883270,297.873993 
	C207.331680,292.043701 213.402313,289.556641 219.758148,288.175354 
	C225.731705,286.877136 231.932419,286.624115 238.487579,285.885040 
	C238.991714,290.923065 239.041473,295.987274 238.567383,301.493225 
	C232.006592,302.964447 225.969620,303.993896 219.932663,305.023315 
z"/>
<path fill="#B8DAF2" opacity="1.000000" stroke="none" 
	d="
M204.350464,484.976959 
	C209.375000,477.245667 217.891418,475.718475 226.280579,474.162689 
	C230.138916,473.447174 234.134674,473.472809 238.506683,473.126556 
	C238.992081,478.146942 239.038910,483.203156 238.578003,488.722412 
	C231.978928,490.150269 225.887589,491.115021 219.796234,492.079773 
	C218.822906,491.596161 217.286148,491.350189 216.966080,490.591187 
	C214.575043,484.920868 209.923004,484.522095 204.350464,484.976959 
z"/>
<path fill="#B8DAF1" opacity="1.000000" stroke="none" 
	d="
M219.895752,445.134521 
	C219.010742,444.797211 217.583878,444.691345 217.325470,444.086365 
	C215.014938,438.677460 210.405289,437.757477 204.894226,437.408203 
	C210.698730,429.972900 219.391083,428.379364 228.146774,427.065735 
	C231.427704,426.573486 234.779770,426.555298 238.524048,426.271729 
	C238.994064,431.299194 239.039444,436.375854 238.589569,441.921875 
	C232.028122,443.305664 225.961945,444.220093 219.895752,445.134521 
z"/>
<path fill="#F0A011" opacity="1.000000" stroke="none" 
	d="
M220.015808,258.365936 
	C225.900024,257.024750 231.974274,256.012360 238.493744,255.014862 
	C238.998352,256.899567 239.057770,258.769409 239.118561,261.031067 
	C232.815231,260.513519 226.510544,259.604156 220.015808,258.365936 
z"/>
<path fill="#EFA011" opacity="1.000000" stroke="none" 
	d="
M219.971283,492.412170 
	C225.887589,491.115021 231.978928,490.150269 238.503479,489.197449 
	C238.996719,491.117279 239.056732,493.025208 239.116623,495.342224 
	C232.793121,494.749084 226.469727,493.746826 219.971283,492.412170 
z"/>
<path fill="#F09F0D" opacity="1.000000" stroke="none" 
	d="
M220.143799,305.328064 
	C225.969620,303.993896 232.006592,302.964447 238.492584,301.953735 
	C238.998749,303.729218 239.055878,305.485901 239.113190,307.684296 
	C232.860550,307.294952 226.607742,306.463898 220.143799,305.328064 
z"/>
<path fill="#F09F0D" opacity="1.000000" stroke="none" 
	d="
M220.073303,445.452881 
	C225.961945,444.220093 232.028122,443.305664 238.514542,442.410583 
	C238.994446,444.290680 239.054108,446.151398 239.114746,448.415405 
	C232.827423,447.802826 226.539139,446.787018 220.073303,445.452881 
z"/>
<path fill="#F19E0A" opacity="1.000000" stroke="none" 
	d="
M220.281998,399.164978 
	C225.988739,397.873810 232.013443,396.779602 238.493317,395.717407 
	C239.001694,397.502808 239.054886,399.256134 239.106628,401.444489 
	C232.936783,401.040314 226.768372,400.201111 220.281998,399.164978 
z"/>
<path fill="#F19E0A" opacity="1.000000" stroke="none" 
	d="
M220.242416,352.273743 
	C226.002045,350.949280 232.020981,349.891113 238.492188,348.861206 
	C238.999283,350.632599 239.054108,352.375763 239.110535,354.553894 
	C232.908661,354.172577 226.705200,353.356293 220.242416,352.273743 
z"/>
<path fill="#B8DAF2" opacity="1.000000" stroke="none" 
	d="
M202.228241,487.786621 
	C202.216492,487.453857 202.409073,486.925598 202.831558,486.218201 
	C202.851837,486.556427 202.642197,487.073822 202.228241,487.786621 
z"/>
<path fill="#B8DAF2" opacity="1.000000" stroke="none" 
	d="
M203.259399,485.902374 
	C203.192093,485.725616 203.327621,485.400909 203.724426,484.992188 
	C203.811203,485.190247 203.636734,485.472351 203.259399,485.902374 
z"/>
<path fill="#05B8E2" opacity="1.000000" stroke="none" 
	d="
M125.527786,294.447632 
	C125.481201,290.036438 125.481201,286.093384 125.481201,282.596710 
	C129.380539,284.718262 132.868866,287.505463 136.815247,288.532379 
	C141.477036,289.745453 145.343750,286.944244 148.852173,283.391663 
	C149.616852,285.682892 149.989090,287.811707 149.990952,289.940826 
	C150.021835,325.182709 149.989685,360.424683 150.042465,395.666504 
	C150.045593,397.755127 150.647415,399.842804 150.997192,402.304138 
	C152.415634,404.826202 153.358871,407.570282 155.279358,409.017670 
	C162.443802,414.417267 169.087036,412.207764 174.799561,402.964142 
	C174.864166,420.294312 174.928772,437.624481 174.515381,455.468079 
	C166.038162,455.935486 158.038956,455.889465 150.029816,455.385040 
	C150.019867,438.368103 150.019867,421.809570 150.019867,404.666443 
	C139.481705,414.169952 135.644531,413.989838 125.913338,404.166656 
	C125.804382,404.056702 125.614098,404.027283 125.461777,403.960266 
	C125.499306,367.612122 125.536842,331.263947 125.527786,294.447632 
z"/>
<path fill="#07DAF6" opacity="1.000000" stroke="none" 
	d="
M174.864868,402.503448 
	C169.087036,412.207764 162.443802,414.417267 155.279358,409.017670 
	C153.358871,407.570282 152.415634,404.826202 151.001099,401.843323 
	C150.977066,361.491638 150.975708,321.973969 150.974365,282.456299 
	C154.237900,284.502716 157.263992,287.323883 160.820633,288.413879 
	C166.147629,290.046387 170.922699,286.691650 174.585495,279.993347 
	C174.861130,320.505920 174.895645,361.274353 174.864868,402.503448 
z"/>
<path fill="#E8F2FB" opacity="1.000000" stroke="none" 
	d="
M150.039764,455.843475 
	C158.038956,455.889465 166.038162,455.935486 174.501221,455.928772 
	C182.539719,457.740082 186.328979,461.333496 186.925232,467.218018 
	C187.477905,472.672516 184.721848,476.965729 177.913620,479.958008 
	C168.047836,479.980377 159.004211,480.019684 149.960587,480.058960 
	C149.505112,480.072327 149.049637,480.085693 148.255341,480.151367 
	C146.880356,480.094116 145.844208,479.984589 144.419556,479.829041 
	C143.883835,479.309418 143.838577,478.767670 143.574417,478.372162 
	C137.047470,468.599152 137.435913,464.851227 146.347046,456.510284 
	C147.916702,456.048126 148.978241,455.945801 150.039764,455.843475 
z"/>
<path fill="#DDD9C5" opacity="1.000000" stroke="none" 
	d="
M150.306976,480.288605 
	C159.004211,480.019684 168.047836,479.980377 177.558563,479.989014 
	C177.951309,480.202026 177.876968,480.367126 177.798798,480.803650 
	C168.747772,480.889496 159.700562,480.703857 150.306976,480.288605 
z"/>
<path fill="#B8DAF1" opacity="1.000000" stroke="none" 
	d="
M203.348938,438.708679 
	C203.458801,438.916351 203.307465,439.257782 202.918060,439.760590 
	C202.815903,439.562103 202.951828,439.202301 203.348938,438.708679 
z"/>
<path fill="#B8DAF1" opacity="1.000000" stroke="none" 
	d="
M202.614166,439.820618 
	C202.724350,440.010040 202.582321,440.313812 202.258362,440.791687 
	C202.171600,440.622192 202.266769,440.278534 202.614166,439.820618 
z"/>
<path fill="#B8DAF1" opacity="1.000000" stroke="none" 
	d="
M204.094360,437.596008 
	C204.195236,437.797363 204.086151,438.125214 203.702026,438.509247 
	C203.453430,438.216125 203.605911,437.935150 204.094360,437.596008 
z"/>
<path fill="#B8DAF2" opacity="1.000000" stroke="none" 
	d="
M203.491974,391.740692 
	C203.576782,391.977448 203.357666,392.319550 202.873108,392.821472 
	C202.801132,392.602905 202.994583,392.224457 203.491974,391.740692 
z"/>
<path fill="#B8DAF2" opacity="1.000000" stroke="none" 
	d="
M203.553452,344.775452 
	C203.644440,345.006378 203.439774,345.339813 202.986145,345.835693 
	C202.910736,345.624756 203.084259,345.251343 203.553452,344.775452 
z"/>
<path fill="#0AA3D0" opacity="1.000000" stroke="none" 
	d="
M150.029816,455.385040 
	C148.978241,455.945801 147.916702,456.048126 146.459274,456.204590 
	C139.412308,456.147186 132.761261,456.035706 125.658241,455.871796 
	C125.218956,438.840057 125.231621,421.860748 125.353027,404.420837 
	C125.614098,404.027283 125.804382,404.056702 125.913338,404.166656 
	C135.644531,413.989838 139.481705,414.169952 150.019867,404.666443 
	C150.019867,421.809570 150.019867,438.368103 150.029816,455.385040 
z"/>
<path fill="#F4B705" opacity="1.000000" stroke="none" 
	d="
M227.713516,111.322571 
	C229.455780,115.977829 228.018372,119.283424 224.096146,121.259239 
	C220.744583,122.947571 217.463730,122.125427 215.112640,119.208687 
	C212.582626,116.069977 212.838669,112.675262 215.350525,109.598228 
	C218.569595,105.654854 223.682922,106.285271 227.713516,111.322571 
z"/>
<path fill="#F4B603" opacity="1.000000" stroke="none" 
	d="
M249.647232,118.504913 
	C244.915848,122.912666 240.607544,123.008858 237.481812,119.098785 
	C234.862961,115.822807 235.215317,110.570839 239.012405,108.735336 
	C241.395157,107.583511 245.264313,107.509247 247.585220,108.687546 
	C251.210861,110.528244 251.821609,114.343903 249.647232,118.504913 
z"/>
<path fill="#30C8CB" opacity="1.000000" stroke="none" 
	d="
M150.778137,282.307495 
	C150.975708,321.973969 150.977066,361.491638 150.974518,401.470123 
	C150.647415,399.842804 150.045593,397.755127 150.042465,395.666504 
	C149.989685,360.424683 150.021835,325.182709 149.990952,289.940826 
	C149.989090,287.811707 149.616852,285.682892 149.145416,283.226929 
	C148.873901,282.899872 148.966675,282.469849 149.040070,282.261658 
	C149.602936,282.088531 150.092422,282.123627 150.778137,282.307495 
z"/>
<path fill="#E7F1FB" opacity="1.000000" stroke="none" 
	d="
M413.739319,439.288757 
	C395.706238,439.646484 377.697327,439.555786 359.330994,438.804688 
	C358.979950,429.045349 359.371338,419.925262 358.872040,410.854218 
	C358.465057,403.460846 360.876801,397.985626 367.033722,394.051178 
	C377.807434,394.000763 388.581329,393.888550 399.354797,393.918915 
	C408.490204,393.944641 413.461090,398.761414 413.716003,408.003937 
	C413.917023,415.293396 413.766479,422.592651 413.769653,429.887543 
	C413.770935,432.871826 413.765747,435.856079 413.739319,439.288757 
z"/>
<path fill="#B7DBF6" opacity="1.000000" stroke="none" 
	d="
M366.565857,393.982269 
	C360.876801,397.985626 358.465057,403.460846 358.872040,410.854218 
	C359.371338,419.925262 358.979950,429.045349 358.963928,438.619202 
	C348.794250,439.182892 338.634308,439.271637 327.920074,439.569244 
	C327.365814,439.778076 326.991211,439.706329 326.991211,439.706329 
	C326.994110,429.040222 326.948456,418.373840 327.015320,407.708130 
	C327.068695,399.197266 332.168793,393.972473 340.601196,393.878021 
	C349.098938,393.782867 357.598969,393.893127 366.565857,393.982269 
z"/>
<path fill="#D32976" opacity="1.000000" stroke="none" 
	d="
M326.640747,439.897217 
	C326.991211,439.706329 327.365814,439.778076 327.555603,439.797180 
	C337.131256,439.816284 346.517120,439.816284 355.263916,439.816284 
	C355.263916,454.073303 355.263916,467.424988 355.263916,481.993683 
	C344.435364,477.765594 334.655243,473.946899 324.520203,470.055725 
	C324.111053,461.542572 323.942200,453.099670 324.106964,444.663300 
	C324.136993,443.124603 325.527679,441.612457 326.640747,439.897217 
z"/>
</svg>
